<?xml version="1.0" encoding="iso-8859-1"?>
<!-- Generator: Adobe Illustrator 18.0.0, SVG Export Plug-In . SVG Version: 6.00 Build 0)  -->
<!DOCTYPE svg PUBLIC "-//W3C//DTD SVG 1.1//EN" "http://www.w3.org/Graphics/SVG/1.1/DTD/svg11.dtd">
<svg version="1.1" id="Capa_1" xmlns="http://www.w3.org/2000/svg" xmlns:xlink="http://www.w3.org/1999/xlink" x="0px" y="0px"
	 viewBox="0 0 512 512" style="enable-background:new 0 0 512 512;" xml:space="preserve">
<g>
	<path d="M336,96l-11.543-69.262C321.883,11.309,308.535,0,292.891,0h-73.781c-15.645,0-28.992,11.309-31.566,26.738L176,96
		c-35.348,0-64,28.652-64,64v192c0,35.346,28.652,64,64,64l11.543,69.262c2.574,15.43,15.922,26.738,31.566,26.738h73.781
		c15.645,0,28.992-11.309,31.566-26.738L336,416c35.348,0,64-28.654,64-64V160C400,124.652,371.348,96,336,96z M176,272
		c-8.836,0-16-7.164-16-16s7.164-16,16-16s16,7.164,16,16S184.836,272,176,272z M224,160c8.836,0,16,7.164,16,16s-7.164,16-16,16
		s-16-7.164-16-16S215.164,160,224,160z M224,352c-8.836,0-16-7.164-16-16s7.164-16,16-16s16,7.164,16,16S232.836,352,224,352z
		 M224,256c0-17.674,14.328-32,32-32s32,14.326,32,32c0,17.672-14.328,32-32,32S224,273.672,224,256z M288,352
		c-8.836,0-16-7.164-16-16s7.164-16,16-16s16,7.164,16,16S296.836,352,288,352z M288,192c-8.836,0-16-7.164-16-16s7.164-16,16-16
		s16,7.164,16,16S296.836,192,288,192z M336,272c-8.836,0-16-7.164-16-16s7.164-16,16-16s16,7.164,16,16S344.836,272,336,272z"/>
</g>
<g>
</g>
<g>
</g>
<g>
</g>
<g>
</g>
<g>
</g>
<g>
</g>
<g>
</g>
<g>
</g>
<g>
</g>
<g>
</g>
<g>
</g>
<g>
</g>
<g>
</g>
<g>
</g>
<g>
</g>
</svg>
